# xmcd
#
# Track frame offsets: 
#        150
#        27230
#        49050
#        74287
#        94420
#        121417
#        138942
#        159340
#
# Disc length: 2462 seconds
#
# Revision: 37
# Processed by: cddbd v1.5.2PL0 Copyright (c) Steve Scherf et al.
# Submitted via: ExactAudioCopyFreeDBPlugin 1.0
#
DISCID=65099908,67099908,68099c08
DTITLE=Leonard Cohen - I'm your man
DYEAR=1988
DGENRE=Blues
TTITLE0=First We Take Manhattan
TTITLE1=Ain't No Cure for Love
TTITLE2=Everybody Knows
TTITLE3=I'm Your Man
TTITLE4=Take This Waltz
TTITLE5=Jazz Police
TTITLE6=I Can't Forget
TTITLE7=Tower of Song
EXTD=
EXTT0=
EXTT1=
EXTT2=
EXTT3=
EXTT4=
EXTT5=
EXTT6=
EXTT7=
PLAYORDER=
